<svg width="907" height="182" viewBox="0 0 907 182" fill="none" xmlns="http://www.w3.org/2000/svg">
<path d="M32.1114 51.0978C32.1114 48.3637 35.4229 46.9409 37.407 48.9217L66.0089 77.4901C67.8952 79.4849 66.5958 82.8048 63.8292 82.8048H35.2133C33.5366 82.8048 32.0975 81.3959 32.1114 79.6801V51.0978Z" fill="black"/>
<path d="M65.9115 104.648L37.3375 133.231C35.3394 135.198 32 133.803 32 131.055V102.472C32 100.771 33.4392 99.3477 35.1438 99.3617H63.7317C66.5682 99.3617 67.8956 102.668 65.9115 104.648Z" fill="black"/>
<path d="M150.473 102.682V131.264C150.473 134.012 147.162 135.421 145.15 133.44L116.548 104.858C114.578 102.877 116.003 99.5431 118.742 99.571H147.329C149.048 99.571 150.362 100.882 150.459 102.682H150.473Z" fill="black"/>
<path d="M82.9722 118.459V147.028C82.9722 148.743 81.533 150.166 79.8284 150.152H51.2405C48.5018 150.152 47.0906 146.846 49.0607 144.838L77.6486 116.297C79.6467 114.4 82.9862 115.697 82.9862 118.445L82.9722 118.459Z" fill="black"/>
<path d="M82.9721 35.0274V63.6934C82.9721 66.4275 79.6606 67.8364 77.6765 65.8695L49.0606 37.3151C47.0765 35.3203 48.4878 32.0004 51.2264 32.0004H79.8143C81.6307 32.0004 82.9442 33.3116 82.9581 35.0274H82.9721Z" fill="black"/>
<path d="M99.5152 63.6934V35.1111C99.5152 33.4093 100.954 32.0004 102.645 32.0004H131.247C133.986 32.0004 135.397 35.3064 133.427 37.3151L104.839 65.8835C102.841 67.7666 99.5012 66.4554 99.5012 63.7074L99.5152 63.6934Z" fill="black"/>
<path d="M116.464 77.532L145.052 48.9636C147.05 46.9689 150.389 48.3778 150.375 51.1118V79.6802C150.375 81.4797 149.062 82.8049 147.26 82.8049H118.658C115.919 82.8049 114.508 79.4989 116.478 77.532H116.464Z" fill="black"/>
<path d="M133.44 145.159C135.411 147.154 133.985 150.488 131.261 150.446L102.659 150.474C100.856 150.446 99.529 149.023 99.529 147.335V118.767C99.529 116.033 102.868 114.596 104.867 116.591L133.454 145.159H133.44Z" fill="black"/>
<path d="M277.83 87.7499L257.865 58.4971C256.958 57.1573 257.902 55.3337 259.512 55.3337H272.742C273.408 55.3337 274.037 55.6686 274.407 56.2269L290.598 80.2879H291.19L307.529 56.2269C307.899 55.6686 308.528 55.3523 309.194 55.3523H322.443C324.053 55.3523 325.015 57.1759 324.09 58.5157L304.124 87.7686C302.052 90.5971 302.2 93.2953 304.124 96.1238L325.699 127.461C326.625 128.801 325.662 130.624 324.052 130.624H310.378C309.712 130.624 309.102 130.308 308.731 129.75L291.208 104.33H290.616L273.241 129.731C272.871 130.271 272.242 130.606 271.595 130.606H257.92C256.292 130.606 255.348 128.782 256.273 127.442L277.849 96.1052C279.773 93.2581 279.921 90.7273 277.849 87.7499H277.83Z" fill="black"/>
<path d="M335.21 55.3494H345.757C346.867 55.3494 347.755 56.2612 347.755 57.3591V61.2855C347.755 63.1278 350.031 64.0396 351.234 62.6626C356.674 56.4287 364.409 53.0977 373.901 53.0977C393.941 53.0977 407.615 68.4871 407.615 92.9761C407.615 117.465 393.959 132.854 373.901 132.854C365.112 132.854 357.896 129.914 352.529 124.499C351.253 123.215 349.088 124.09 349.088 125.895V158.46C349.088 159.576 348.181 160.47 347.089 160.47H335.21C334.1 160.47 333.212 159.558 333.212 158.46V57.3591C333.212 56.2426 334.118 55.3494 335.21 55.3494ZM391.11 92.9761C391.11 77.1401 383.098 66.8495 370.311 66.8495C357.525 66.8495 348.773 77.1587 348.773 92.9761C348.773 108.793 357.377 119.103 370.311 119.103C383.246 119.103 391.11 108.793 391.11 92.9761Z" fill="black"/>
<path d="M412.389 92.9761C412.389 69.0826 426.636 53.0977 449.655 53.0977C472.674 53.0977 487.033 70.1991 484.461 95.6371C484.35 96.6606 483.48 97.4422 482.444 97.4422H430.652C429.412 97.4422 428.487 98.5587 428.653 99.7869C430.356 112.273 437.887 119.698 449.785 119.698C459.573 119.698 465.272 114.674 467.345 109.649C467.641 108.924 468.381 108.496 469.158 108.496H480.852C482.222 108.496 483.184 109.854 482.777 111.157C478.78 123.699 467.141 132.836 449.785 132.836C426.914 132.836 412.37 117.149 412.37 92.9575L412.389 92.9761ZM466.586 85.8118C467.77 85.8118 468.677 84.7883 468.603 83.6159C467.863 73.4928 460.998 65.9563 449.063 65.9563C438.812 65.9563 431.392 72.3391 429.245 83.3926C429.005 84.6394 429.949 85.8304 431.225 85.8304H466.586V85.8118Z" fill="black"/>
<path d="M509.44 55.3508H531.349C532.459 55.3508 533.347 56.2626 533.347 57.3606V67.0557C533.347 68.1722 532.44 69.0654 531.349 69.0654H510.717C509.607 69.0654 508.719 69.9772 508.719 71.0751V128.576C508.719 129.692 507.812 130.586 506.72 130.586H494.841C493.731 130.586 492.842 129.674 492.842 128.576V72.0428C492.842 61.1381 498.782 55.3136 509.477 55.3136L509.44 55.3508Z" fill="black"/>
<path d="M539.047 106.729V34.0622C539.047 32.9457 539.954 32.0525 541.046 32.0525H552.629C553.739 32.0525 554.628 32.9643 554.628 34.0622V53.3222C554.628 54.4387 555.534 55.3319 556.626 55.3319H568.061C569.171 55.3319 570.06 56.2438 570.06 57.3417V67.0368C570.06 68.1533 569.153 69.0465 568.061 69.0465H556.922C555.812 69.0465 554.924 69.9583 554.924 71.0562V112.349C554.924 115.494 556.256 116.834 559.531 116.834H570.004C571.114 116.834 572.003 117.745 572.003 118.843V128.538C572.003 129.655 571.096 130.548 570.004 130.548H564.138C547.504 130.548 539.047 121.579 539.047 106.655V106.729Z" fill="black"/>
<path d="M576.018 35.9246C576.018 30.5467 580.329 26.3597 585.972 26.3597C591.616 26.3597 595.927 30.5467 595.927 35.9246C595.927 41.3025 591.616 45.3406 585.972 45.3406C580.329 45.3406 576.018 41.4514 576.018 35.9246ZM579.959 55.352H591.838C592.948 55.352 593.837 56.2638 593.837 57.3618V128.596C593.837 129.712 592.93 130.605 591.838 130.605H579.959C578.849 130.605 577.96 129.694 577.96 128.596V57.3618C577.96 56.2452 578.867 55.352 579.959 55.352Z" fill="black"/>
<path d="M667.278 109.408C667.278 123.885 655.102 132.854 635.803 132.854C616.504 132.854 603.292 123.345 601.793 108.105C601.682 106.895 602.589 105.835 603.792 105.835H614.801C615.726 105.835 616.559 106.486 616.744 107.398C618.298 115.139 624.368 119.866 635.655 119.866C645.166 119.866 651.254 116.274 651.254 109.408C651.254 104.03 647.534 101.201 639.226 99.6938L627.939 97.6096C611.896 94.93 603.588 87.8959 603.588 76.098C603.588 62.6626 614.431 53.0977 633.139 53.0977C650.791 53.0977 662.522 61.6019 664.539 76.3027C664.706 77.5309 663.781 78.6474 662.541 78.6474H651.328C650.402 78.6474 649.57 78.0147 649.385 77.1029C647.96 70.0874 642.427 65.8074 632.99 65.8074C623.554 65.8074 619.187 69.8455 619.187 75.5212C619.187 80.4525 622.61 83.4298 632.25 85.086L644.426 87.3191C659.118 90.1662 667.296 97.3305 667.296 109.426L667.278 109.408Z" fill="black"/>
<path d="M671.441 92.9761C671.441 69.0826 685.689 53.0977 708.708 53.0977C731.726 53.0977 746.085 70.1991 743.513 95.6371C743.402 96.6606 742.533 97.4422 741.496 97.4422H689.704C688.465 97.4422 687.539 98.5587 687.706 99.7869C689.408 112.273 696.939 119.698 708.837 119.698C718.626 119.698 724.325 114.674 726.397 109.649C726.693 108.924 727.434 108.496 728.211 108.496H739.905C741.274 108.496 742.237 109.854 741.829 111.157C737.833 123.699 726.194 132.836 708.837 132.836C685.967 132.836 671.404 117.149 671.404 92.9575L671.441 92.9761ZM725.639 85.8118C726.823 85.8118 727.73 84.7883 727.656 83.6159C726.915 73.4928 720.032 65.9563 708.116 65.9563C697.864 65.9563 690.445 72.3391 688.298 83.3926C688.058 84.6394 689.001 85.8304 690.278 85.8304H725.639V85.8118Z" fill="black"/>
<path d="M180.111 91.1305C180.111 67.237 194.358 51.2521 217.377 51.2521C240.396 51.2521 254.755 68.3535 252.182 93.7915C252.071 94.815 251.202 95.5965 250.166 95.5965H198.374C197.134 95.5965 196.209 96.7131 196.375 97.9412C198.078 110.428 205.609 117.852 217.506 117.852C227.295 117.852 232.994 112.828 235.067 107.804C235.363 107.078 236.103 106.65 236.88 106.65H248.574C249.944 106.65 250.906 108.009 250.499 109.311C246.502 121.853 234.863 130.99 217.506 130.99C194.636 130.99 180.092 115.303 180.092 91.1118L180.111 91.1305ZM234.308 83.9661C235.492 83.9661 236.399 82.9427 236.325 81.7703C235.585 71.6472 228.72 64.1107 216.785 64.1107C206.534 64.1107 199.114 70.4935 196.967 81.547C196.727 82.7938 197.671 83.9847 198.947 83.9847H234.308V83.9661Z" fill="black"/>
<path d="M755.15 131.457C752.168 131.457 750 129.371 750 126.56C750 123.748 752.168 121.572 755.15 121.572C758.041 121.572 760.209 123.748 760.209 126.56C760.209 129.371 758.041 131.457 755.15 131.457Z" fill="black"/>
<path d="M786.644 131.457C776.706 131.457 770.924 125.471 770.924 117.4C770.924 109.42 776.435 104.432 787.006 103.707L798.57 102.891C800.739 102.709 801.823 101.803 801.823 98.81C801.823 92.3714 797.034 89.9229 791.162 89.9229C785.157 89.9229 781.339 92.4833 780.099 97.144C779.85 98.0813 779.051 98.81 778.081 98.81H774.383C773.22 98.81 772.315 97.782 772.568 96.6473C774.558 87.7389 781.201 83.2123 791.342 83.2123C802.636 83.2123 809.774 88.8347 809.774 101.621V121.397C809.774 122.395 810.583 123.204 811.58 123.204V123.204C812.578 123.204 813.387 124.013 813.387 125.011V128.171C813.387 129.234 812.525 130.096 811.462 130.096H810.045C805.527 130.096 802.907 127.285 802.907 122.116V122.116C802.907 121.975 802.708 121.933 802.648 122.061C799.838 128.049 794.175 131.457 786.644 131.457ZM787.729 124.837C795.95 124.837 802.094 119.214 802.094 110.055V110.055C802.094 109.22 801.389 108.559 800.555 108.612L788 109.42C781.404 109.874 778.874 112.503 778.874 117.038C778.874 122.388 782.308 124.837 787.729 124.837Z" fill="black"/>
<path d="M823.108 130.096C822.045 130.096 821.183 129.234 821.183 128.171V86.4977C821.183 85.4345 822.045 84.5725 823.108 84.5725H827.027C828.091 84.5725 828.953 85.4345 828.953 86.4977V128.171C828.953 129.234 828.091 130.096 827.027 130.096H823.108Z" fill="black"/>
<path d="M824.632 66C821.103 66 818.406 68.6283 818.406 72.0041C818.406 75.4734 821.103 77.9148 824.632 77.9148C828.162 77.9148 830.858 75.38 830.858 72.0041C830.858 68.6283 828.162 66 824.632 66Z" fill="black"/>
</svg>
