<?xml version="1.0" encoding="UTF-8"?> <svg xmlns="http://www.w3.org/2000/svg" width="136" height="45" viewBox="0 0 136 45" fill="none"><g clip-path="url(#clip0_1423_7117)"><path d="M8.2041 34.2692H19.99C21.9543 34.2692 25.6518 34.0384 28.3095 31.6153C28.8872 31.0384 29.4649 30.2307 29.9271 29.3076L8.2041 32.423V34.2692Z" fill="black"></path><path d="M30.736 25.154C30.736 22.3848 29.696 20.654 28.7716 19.6155C27.6162 18.4617 25.9985 17.7694 24.4964 17.5386C25.3052 17.1925 26.3451 16.5002 27.154 15.2309C27.9628 13.8463 28.1939 12.4617 28.1939 11.1925C28.1939 9.80784 27.9628 7.154 25.8829 5.30784C23.4564 3.00015 19.5278 2.88477 17.9101 2.88477H8.2041V27.6925L15.3681 26.8848V21.0002H17.3324C18.8345 21.0002 21.261 21.0002 22.5321 22.154C22.9942 22.6155 23.572 23.4232 23.572 24.6925C23.572 25.154 23.4564 25.6155 23.3409 25.9617L30.736 25.154ZM20.2211 14.7694C19.1812 15.5771 17.5635 15.6925 16.5236 15.6925H15.3681V8.53861H16.5236C17.7946 8.53861 19.2967 8.53861 20.3366 9.34631C20.9144 9.80784 21.6077 10.6155 21.6077 12.0002C21.4921 13.3848 20.9144 14.3078 20.2211 14.7694Z" fill="black"></path><path d="M124.677 12.5771C122.366 12.5771 119.13 13.0387 116.588 15.5771C116.588 15.5771 116.588 15.5771 116.473 15.6925L130.801 14.0771C128.721 12.8079 126.41 12.5771 124.677 12.5771Z" fill="black"></path><path d="M77.5324 15.6923C75.7992 13.3846 73.2572 12.6923 70.9462 12.6923C68.0575 12.6923 65.5154 13.7308 63.6667 15.4615C62.049 17.0769 60.8935 19.2692 60.5469 21.9231L68.0575 21.1154C68.2886 20.6538 68.6352 20.3077 68.9819 19.8462C70.0218 18.8077 71.2928 18.4615 72.5639 18.4615C74.066 18.4615 75.337 18.9231 76.3769 19.9615L76.4925 20.0769L84.2342 19.2692V0H77.4169V15.6923H77.5324Z" fill="black"></path><path d="M33.7402 34.2693H40.442V27.6924L33.7402 28.6155V34.2693Z" fill="black"></path><path d="M103.069 19.7308C103.993 20.5385 104.687 21.9232 104.687 23.5385C104.687 25.0385 104.109 26.5385 103.069 27.577C102.376 28.2693 101.22 28.9616 99.3714 28.9616C97.7538 28.9616 96.4827 28.5001 95.5584 27.4616C94.634 26.4232 94.0562 25.0385 94.0562 23.6539C94.0562 22.3847 94.634 20.7693 95.6739 19.7308C95.905 19.6155 96.0206 19.3847 96.2517 19.2693L87.47 20.5385C87.2389 21.577 87.0078 22.6155 87.0078 23.8847C87.0078 27.4616 88.3944 30.0001 90.0121 31.7308C91.9764 33.6924 94.4029 34.7308 97.6382 34.7308C101.451 34.7308 103.069 32.8847 103.878 31.6155V34.0385C103.878 34.9616 103.878 37.1539 102.491 38.4232C102.029 38.8847 100.989 39.577 99.1404 39.577C98.1004 39.577 97.0605 39.3462 96.2517 38.8847C95.6739 38.5385 94.9806 37.8462 94.7495 36.8078H87.3545C87.8166 39.4616 89.2032 41.1924 90.4743 42.3462C93.1319 44.6539 96.4827 45.0001 99.2559 45.0001C101.567 45.0001 105.495 44.6539 108.153 41.8847C110.58 39.2308 110.695 35.8847 110.695 33.0001V17.1924L100.758 18.6924C101.682 18.9232 102.491 19.2693 103.069 19.7308Z" fill="black"></path><path d="M136 24.2308C136 21.6924 135.538 18.3462 132.996 15.6924C132.418 15.1155 131.725 14.5385 131.031 14.1924L115.779 16.5001C114.161 18.577 113.353 21.2308 113.353 23.8847C113.353 27.3462 114.624 30.1155 116.472 31.9616C118.899 34.3847 121.672 34.9616 124.792 34.9616C127.103 34.9616 129.414 34.6155 131.378 33.4616C132.649 32.6539 134.498 31.1539 135.422 28.1539L129.067 27.4616C128.489 28.6155 127.68 29.1924 127.565 29.1924C126.872 29.6539 125.832 29.7693 124.792 29.7693C123.752 29.7693 122.365 29.5385 121.325 28.5001C120.517 27.577 120.054 26.077 120.054 24.9232H135.769L136 24.2308ZM120.517 20.8847C120.748 19.9616 121.21 19.1539 121.672 18.577C122.365 17.8847 123.405 17.1924 125.138 17.1924C126.525 17.1924 127.565 17.6539 128.374 18.3462C129.414 19.2693 129.645 20.6539 129.76 20.7693L120.517 20.8847Z" fill="black"></path><path d="M104.109 15.6925C103.3 14.5387 101.682 12.5771 97.8691 12.5771C93.9405 12.5771 91.514 14.3079 90.2429 15.5771C89.4341 16.3848 88.7408 17.5387 88.1631 18.8079L110.926 16.2695V13.2695H104.109V15.6925Z" fill="black"></path><path d="M43.099 13.6156C42.059 14.3079 41.0191 15.3464 40.4414 16.5002V13.1541H33.624V24.6925L40.4414 23.8848C40.5569 22.5002 40.9035 21.0002 42.059 19.8464C42.8679 18.9233 44.0233 18.4618 45.4099 18.4618C46.5654 18.4618 47.6053 18.6925 48.4142 19.2695L48.7608 12.9233C47.952 12.6925 47.3742 12.5771 46.5654 12.5771C45.4099 12.8079 44.2544 12.9233 43.099 13.6156Z" fill="black"></path><path d="M50.6104 34.2697H57.4277V25.1543L50.6104 26.1928V34.2697Z" fill="black"></path><path d="M50.6104 22.9618L57.4277 22.2695V13.2695H50.6104V22.9618Z" fill="black"></path><path d="M77.9946 23.7691C77.9946 25.4999 77.1858 26.7691 76.4925 27.5768C75.4526 28.6152 73.9504 29.0768 72.6794 29.0768C71.5239 29.0768 70.1374 28.6152 69.0974 27.5768C68.0575 26.6537 67.4798 25.2691 67.4798 23.7691V23.6537L60.5469 24.6922C60.778 27.5768 61.8179 30.1152 63.7822 32.0768C65.631 33.9229 67.8264 34.9614 70.9462 34.9614C74.6437 34.9614 76.4925 33.2306 77.5324 31.7306V34.2691H84.3498V21.1152L77.7635 22.0383C77.8791 22.6152 77.9946 23.1922 77.9946 23.7691Z" fill="black"></path><path d="M0.92442 32.0771V33.6925H1.96435V32.1925H2.54209V33.6925H3.81312V32.0771H4.39086V34.2695H0.34668V32.0771H0.92442Z" fill="black"></path><path d="M1.27106 28.6152C0.92442 29.0768 0.808872 29.4229 0.808872 29.6537C0.808872 30.4614 1.38661 31.1537 2.311 31.1537C3.11983 31.1537 3.81312 30.5768 3.81312 29.6537C3.81312 29.1922 3.58202 28.846 3.35093 28.6152H4.04422C4.27531 28.9614 4.39086 29.4229 4.39086 29.6537C4.39086 30.346 4.04422 30.8075 3.81312 31.0383C3.35093 31.4999 2.88874 31.7306 2.311 31.7306C1.61771 31.7306 1.03997 31.3845 0.808872 31.0383C0.462228 30.5768 0.34668 30.1152 0.34668 29.6537C0.34668 29.3075 0.462228 28.9614 0.577776 28.6152H1.27106Z" fill="black"></path><path d="M2.31131 24.2305C3.46679 24.2305 4.39117 25.1535 4.39117 26.3074C4.39117 27.4612 3.46679 28.3843 2.31131 28.3843C1.15583 28.3843 0.231445 27.4612 0.231445 26.3074C0.231445 25.0382 1.15583 24.2305 2.31131 24.2305ZM2.31131 24.8074C1.38693 24.8074 0.809185 25.3843 0.809185 26.3074C0.809185 27.2305 1.38693 27.692 2.31131 27.692C3.23569 27.692 3.81343 27.1151 3.81343 26.192C3.81343 25.3843 3.12015 24.8074 2.31131 24.8074Z" fill="black"></path><path d="M4.27528 23.8845L0 23.0768L3.1198 21.6922L0 20.3075L4.27528 19.6152V20.1922L1.84877 20.5383L4.39082 21.6922L1.84877 22.846L4.27528 23.3075V23.8845Z" fill="black"></path><path d="M4.27528 19.154L0 18.3463L3.1198 16.9617L0 15.5771L4.27528 14.8848V15.4617L1.84877 15.8078L4.39082 16.9617L1.84877 18.1155L4.27528 18.5771V19.154Z" fill="black"></path><path d="M0.92442 12.1152V13.7306H1.96435V12.2306H2.54209V13.7306H3.81312V12.1152H4.39086V14.3075H0.34668V12.1152H0.92442Z" fill="black"></path><path d="M0.34668 10.7309C0.34668 10.2694 0.462228 9.92323 0.577776 9.69246C0.808872 9.23092 1.27106 9.23092 1.50216 9.23092C2.0799 9.23092 2.54209 9.57707 2.65764 10.154L4.39086 8.88477V9.57707L2.77319 10.7309V10.8463H4.39086V11.4232H0.34668V10.7309ZM2.0799 10.8463V10.6155C2.0799 10.5002 2.0799 9.80784 1.38661 9.80784C0.92442 9.80784 0.808872 10.3848 0.808872 10.6155V10.8463H2.0799Z" fill="black"></path><path d="M1.27138 5.6543C0.809185 6.11584 0.809185 6.57737 0.809185 6.80814C0.809185 7.61584 1.50247 8.19276 2.31131 8.19276C3.12015 8.19276 3.81343 7.61584 3.81343 6.69276C3.81343 6.23122 3.58234 5.88507 3.35124 5.6543H4.04453C4.27563 6.00045 4.39117 6.46199 4.39117 6.69276C4.39117 7.38507 4.04453 7.8466 3.81343 8.07737C3.35124 8.6543 2.88905 8.76968 2.31131 8.76968C1.61802 8.76968 1.04028 8.42353 0.809185 8.07737C0.346993 7.73122 0.231445 7.26968 0.231445 6.80814C0.231445 6.46199 0.346993 6.11584 0.462541 5.76968H1.27138V5.6543Z" fill="black"></path><path d="M0.92442 2.88477V4.50015H1.96435V3.00015H2.54209V4.50015H3.81312V2.88477H4.39086V5.07707H0.34668V2.88477H0.92442Z" fill="black"></path></g><defs><clipPath id="clip0_1423_7117"><rect width="136" height="45" fill="white"></rect></clipPath></defs></svg> 