<svg xmlns="http://www.w3.org/2000/svg" xmlns:xlink="http://www.w3.org/1999/xlink" width="490" zoomAndPan="magnify" viewBox="0 0 367.5 101.249998" height="135" preserveAspectRatio="xMidYMid meet" version="1.0"><defs><g/></defs><g fill="#252525" fill-opacity="1"><g transform="translate(6.411111, 65.827613)"><g><path d="M 0.609375 -50.125 L 0.609375 -62.65625 L 44.65625 -62.65625 L 44.65625 -50.125 L 29.78125 -50.125 L 29.78125 0 L 15.5 0 L 15.5 -50.125 Z M 0.609375 -50.125 "/></g></g></g><g fill="#252525" fill-opacity="1"><g transform="translate(49.775068, 65.827613)"><g><path d="M 43.984375 -17.625 L 15.71875 -17.625 C 15.71875 -14.882812 16.601562 -12.851562 18.375 -11.53125 C 20.144531 -10.21875 22.070312 -9.5625 24.15625 -9.5625 C 26.332031 -9.5625 28.050781 -9.851562 29.3125 -10.4375 C 30.582031 -11.019531 32.023438 -12.175781 33.640625 -13.90625 L 43.375 -9.03125 C 39.320312 -2.25 32.585938 1.140625 23.171875 1.140625 C 17.296875 1.140625 12.253906 -0.867188 8.046875 -4.890625 C 3.847656 -8.921875 1.75 -13.769531 1.75 -19.4375 C 1.75 -25.113281 3.847656 -29.976562 8.046875 -34.03125 C 12.253906 -38.082031 17.296875 -40.109375 23.171875 -40.109375 C 29.347656 -40.109375 34.367188 -38.320312 38.234375 -34.75 C 42.109375 -31.175781 44.046875 -26.070312 44.046875 -19.4375 C 44.046875 -18.53125 44.023438 -17.925781 43.984375 -17.625 Z M 16.109375 -25.0625 L 30.90625 -25.0625 C 30.601562 -27.09375 29.804688 -28.648438 28.515625 -29.734375 C 27.222656 -30.828125 25.566406 -31.375 23.546875 -31.375 C 21.316406 -31.375 19.539062 -30.789062 18.21875 -29.625 C 16.90625 -28.457031 16.203125 -26.9375 16.109375 -25.0625 Z M 16.109375 -25.0625 "/></g></g></g><g fill="#252525" fill-opacity="1"><g transform="translate(93.670639, 65.827613)"><g><path d="M 25.296875 -29.09375 C 22.765625 -29.09375 20.585938 -28.15625 18.765625 -26.28125 C 16.941406 -24.40625 16.03125 -22.148438 16.03125 -19.515625 C 16.03125 -16.835938 16.941406 -14.5625 18.765625 -12.6875 C 20.585938 -10.8125 22.765625 -9.875 25.296875 -9.875 C 26.503906 -9.875 27.648438 -10.023438 28.734375 -10.328125 C 29.828125 -10.628906 30.628906 -10.929688 31.140625 -11.234375 L 31.828125 -11.703125 L 36.375 -2.359375 C 36.019531 -2.097656 35.523438 -1.773438 34.890625 -1.390625 C 34.265625 -1.015625 32.820312 -0.5 30.5625 0.15625 C 28.3125 0.8125 25.894531 1.140625 23.3125 1.140625 C 17.59375 1.140625 12.566406 -0.867188 8.234375 -4.890625 C 3.910156 -8.921875 1.75 -13.75 1.75 -19.375 C 1.75 -25.039062 3.910156 -29.910156 8.234375 -33.984375 C 12.566406 -38.066406 17.59375 -40.109375 23.3125 -40.109375 C 25.894531 -40.109375 28.273438 -39.800781 30.453125 -39.1875 C 32.628906 -38.582031 34.175781 -37.976562 35.09375 -37.375 L 36.375 -36.453125 L 31.828125 -27.265625 C 30.148438 -28.484375 27.972656 -29.09375 25.296875 -29.09375 Z M 25.296875 -29.09375 "/></g></g></g><g fill="#252525" fill-opacity="1"><g transform="translate(129.06039, 65.827613)"><g><path d="M 4.5625 0 L 4.5625 -65.3125 L 18 -65.3125 L 18 -34.859375 L 18.15625 -34.859375 C 21.644531 -38.359375 25.363281 -40.109375 29.3125 -40.109375 C 31.238281 -40.109375 33.148438 -39.851562 35.046875 -39.34375 C 36.953125 -38.832031 38.773438 -38.046875 40.515625 -36.984375 C 42.265625 -35.921875 43.679688 -34.414062 44.765625 -32.46875 C 45.859375 -30.519531 46.40625 -28.253906 46.40625 -25.671875 L 46.40625 0 L 32.96875 0 L 32.96875 -22.03125 C 32.96875 -24.050781 32.320312 -25.820312 31.03125 -27.34375 C 29.738281 -28.863281 28.050781 -29.625 25.96875 -29.625 C 23.945312 -29.625 22.113281 -28.835938 20.46875 -27.265625 C 18.820312 -25.691406 18 -23.945312 18 -22.03125 L 18 0 Z M 4.5625 0 "/></g></g></g><g fill="#252525" fill-opacity="1"><g transform="translate(177.360765, 65.827613)"><g><path d="M 27.640625 -63.796875 C 31.035156 -63.796875 34.351562 -63.300781 37.59375 -62.3125 C 40.832031 -61.332031 43.238281 -60.359375 44.8125 -59.390625 L 47.09375 -57.875 L 41.3125 -46.484375 C 40.863281 -46.785156 40.234375 -47.175781 39.421875 -47.65625 C 38.609375 -48.132812 37.085938 -48.78125 34.859375 -49.59375 C 32.628906 -50.40625 30.554688 -50.8125 28.640625 -50.8125 C 26.253906 -50.8125 24.414062 -50.304688 23.125 -49.296875 C 21.832031 -48.285156 21.1875 -46.914062 21.1875 -45.1875 C 21.1875 -44.332031 21.488281 -43.535156 22.09375 -42.796875 C 22.707031 -42.066406 23.75 -41.28125 25.21875 -40.4375 C 26.6875 -39.601562 27.976562 -38.929688 29.09375 -38.421875 C 30.207031 -37.921875 31.925781 -37.164062 34.25 -36.15625 C 38.300781 -34.4375 41.753906 -32.09375 44.609375 -29.125 C 47.472656 -26.164062 48.90625 -22.8125 48.90625 -19.0625 C 48.90625 -15.46875 48.257812 -12.328125 46.96875 -9.640625 C 45.6875 -6.960938 43.914062 -4.863281 41.65625 -3.34375 C 39.40625 -1.820312 36.910156 -0.695312 34.171875 0.03125 C 31.441406 0.769531 28.484375 1.140625 25.296875 1.140625 C 22.554688 1.140625 19.867188 0.859375 17.234375 0.296875 C 14.609375 -0.253906 12.40625 -0.945312 10.625 -1.78125 C 8.851562 -2.613281 7.257812 -3.4375 5.84375 -4.25 C 4.425781 -5.0625 3.390625 -5.742188 2.734375 -6.296875 L 1.75 -7.140625 L 8.890625 -19.140625 C 9.492188 -18.628906 10.328125 -17.984375 11.390625 -17.203125 C 12.453125 -16.421875 14.335938 -15.367188 17.046875 -14.046875 C 19.753906 -12.734375 22.148438 -12.078125 24.234375 -12.078125 C 30.253906 -12.078125 33.265625 -14.128906 33.265625 -18.234375 C 33.265625 -19.085938 33.046875 -19.878906 32.609375 -20.609375 C 32.179688 -21.347656 31.421875 -22.082031 30.328125 -22.8125 C 29.242188 -23.550781 28.285156 -24.132812 27.453125 -24.5625 C 26.617188 -25 25.25 -25.660156 23.34375 -26.546875 C 21.445312 -27.429688 20.046875 -28.101562 19.140625 -28.5625 C 15.335938 -30.4375 12.398438 -32.773438 10.328125 -35.578125 C 8.253906 -38.390625 7.21875 -41.414062 7.21875 -44.65625 C 7.21875 -50.28125 9.289062 -54.875 13.4375 -58.4375 C 17.59375 -62.007812 22.328125 -63.796875 27.640625 -63.796875 Z M 27.640625 -63.796875 "/></g></g></g><g fill="#252525" fill-opacity="1"><g transform="translate(226.496542, 65.827613)"><g><path d="M 40.40625 -62.65625 L 40.40625 -50.125 L 18.84375 -50.125 L 18.84375 -37.671875 L 39.5 -37.671875 L 39.5 -25.140625 L 18.84375 -25.140625 L 18.84375 -12.53125 L 40.40625 -12.53125 L 40.40625 0 L 4.5625 0 L 4.5625 -62.65625 Z M 40.40625 -62.65625 "/></g></g></g><g fill="#252525" fill-opacity="1"><g transform="translate(268.645377, 65.827613)"><g><path d="M 1.75 -31.375 C 1.75 -40.4375 4.835938 -48.101562 11.015625 -54.375 C 17.191406 -60.65625 24.632812 -63.796875 33.34375 -63.796875 C 42.101562 -63.796875 49.546875 -60.671875 55.671875 -54.421875 C 61.796875 -48.171875 64.859375 -40.488281 64.859375 -31.375 C 64.859375 -22.207031 61.84375 -14.492188 55.8125 -8.234375 C 49.789062 -1.984375 42.300781 1.140625 33.34375 1.140625 C 24.175781 1.140625 16.617188 -1.957031 10.671875 -8.15625 C 4.722656 -14.363281 1.75 -22.101562 1.75 -31.375 Z M 17.171875 -31.375 C 17.171875 -28.082031 17.675781 -25.078125 18.6875 -22.359375 C 19.695312 -19.648438 21.46875 -17.359375 24 -15.484375 C 26.53125 -13.617188 29.644531 -12.6875 33.34375 -12.6875 C 38.65625 -12.6875 42.664062 -14.507812 45.375 -18.15625 C 48.09375 -21.800781 49.453125 -26.207031 49.453125 -31.375 C 49.453125 -36.488281 48.070312 -40.878906 45.3125 -44.546875 C 42.550781 -48.210938 38.5625 -50.046875 33.34375 -50.046875 C 28.175781 -50.046875 24.1875 -48.210938 21.375 -44.546875 C 18.570312 -40.878906 17.171875 -36.488281 17.171875 -31.375 Z M 17.171875 -31.375 "/></g></g></g><g fill="#cb6ce6" fill-opacity="1"><g transform="translate(333.361379, 65.827613)"><g><path d="M 13.21875 -16.25 C 15.644531 -16.25 17.707031 -15.398438 19.40625 -13.703125 C 21.101562 -12.015625 21.953125 -9.953125 21.953125 -7.515625 C 21.953125 -5.140625 21.101562 -3.101562 19.40625 -1.40625 C 17.707031 0.289062 15.644531 1.140625 13.21875 1.140625 C 10.832031 1.140625 8.789062 0.289062 7.09375 -1.40625 C 5.40625 -3.101562 4.5625 -5.140625 4.5625 -7.515625 C 4.5625 -9.953125 5.40625 -12.015625 7.09375 -13.703125 C 8.789062 -15.398438 10.832031 -16.25 13.21875 -16.25 Z M 13.21875 -16.25 "/></g></g></g><g fill="#252525" fill-opacity="1"><g transform="translate(187.466843, 94.024439)"><g><path d="M 11.390625 -12.796875 C 11.703125 -12.796875 11.960938 -12.691406 12.171875 -12.484375 C 12.378906 -12.285156 12.484375 -12.050781 12.484375 -11.78125 C 12.484375 -11.632812 12.425781 -11.429688 12.3125 -11.171875 L 7.71875 -0.71875 C 7.625 -0.507812 7.484375 -0.34375 7.296875 -0.21875 C 7.117188 -0.09375 6.925781 -0.0195312 6.71875 0 C 6.46875 0.03125 6.234375 -0.015625 6.015625 -0.140625 C 5.796875 -0.273438 5.628906 -0.46875 5.515625 -0.71875 L 0.921875 -11.171875 C 0.835938 -11.410156 0.796875 -11.613281 0.796875 -11.78125 C 0.796875 -12.039062 0.898438 -12.273438 1.109375 -12.484375 C 1.316406 -12.691406 1.59375 -12.796875 1.9375 -12.796875 C 2.175781 -12.796875 2.390625 -12.734375 2.578125 -12.609375 C 2.773438 -12.492188 2.929688 -12.3125 3.046875 -12.0625 L 6.703125 -3.578125 L 10.359375 -12.0625 C 10.578125 -12.550781 10.921875 -12.796875 11.390625 -12.796875 Z M 11.390625 -12.796875 "/></g></g></g><g fill="#252525" fill-opacity="1"><g transform="translate(216.487988, 94.024439)"><g><path d="M 3.890625 -1.15625 C 3.890625 -0.832031 3.78125 -0.554688 3.5625 -0.328125 C 3.34375 -0.109375 3.066406 0 2.734375 0 C 2.410156 0 2.140625 -0.109375 1.921875 -0.328125 C 1.703125 -0.554688 1.59375 -0.832031 1.59375 -1.15625 L 1.59375 -11.640625 C 1.59375 -11.960938 1.703125 -12.234375 1.921875 -12.453125 C 2.140625 -12.679688 2.410156 -12.796875 2.734375 -12.796875 C 3.066406 -12.796875 3.34375 -12.679688 3.5625 -12.453125 C 3.78125 -12.234375 3.890625 -11.960938 3.890625 -11.640625 Z M 2.734375 -14.390625 C 2.265625 -14.390625 1.925781 -14.472656 1.71875 -14.640625 C 1.519531 -14.816406 1.421875 -15.085938 1.421875 -15.453125 L 1.421875 -15.84375 C 1.421875 -16.226562 1.53125 -16.5 1.75 -16.65625 C 1.96875 -16.820312 2.304688 -16.90625 2.765625 -16.90625 C 3.210938 -16.90625 3.535156 -16.820312 3.734375 -16.65625 C 3.941406 -16.488281 4.046875 -16.21875 4.046875 -15.84375 L 4.046875 -15.453125 C 4.046875 -15.066406 3.9375 -14.789062 3.71875 -14.625 C 3.507812 -14.46875 3.179688 -14.390625 2.734375 -14.390625 Z M 2.734375 -14.390625 "/></g></g></g><g fill="#252525" fill-opacity="1"><g transform="translate(237.747558, 94.024439)"><g><path d="M 5.15625 -10.421875 L 5.15625 -3.21875 C 5.15625 -2.40625 5.515625 -2 6.234375 -2 C 6.347656 -2 6.5 -2.023438 6.6875 -2.078125 C 6.882812 -2.140625 7.039062 -2.171875 7.15625 -2.171875 C 7.363281 -2.171875 7.539062 -2.082031 7.6875 -1.90625 C 7.832031 -1.726562 7.90625 -1.503906 7.90625 -1.234375 C 7.90625 -0.890625 7.710938 -0.597656 7.328125 -0.359375 C 6.941406 -0.117188 6.503906 0 6.015625 0 C 5.484375 0 4.992188 -0.0546875 4.546875 -0.171875 C 4.109375 -0.285156 3.71875 -0.570312 3.375 -1.03125 C 3.03125 -1.488281 2.859375 -2.1875 2.859375 -3.125 L 2.859375 -10.421875 L 1.453125 -10.421875 C 1.140625 -10.421875 0.882812 -10.519531 0.6875 -10.71875 C 0.488281 -10.925781 0.390625 -11.179688 0.390625 -11.484375 C 0.390625 -11.796875 0.488281 -12.046875 0.6875 -12.234375 C 0.882812 -12.429688 1.140625 -12.53125 1.453125 -12.53125 L 2.859375 -12.53125 L 2.859375 -14.5625 C 2.859375 -14.882812 2.960938 -15.15625 3.171875 -15.375 C 3.390625 -15.601562 3.671875 -15.71875 4.015625 -15.71875 C 4.335938 -15.71875 4.609375 -15.601562 4.828125 -15.375 C 5.046875 -15.15625 5.15625 -14.882812 5.15625 -14.5625 L 5.15625 -12.53125 L 7.15625 -12.53125 C 7.46875 -12.53125 7.722656 -12.425781 7.921875 -12.21875 C 8.117188 -12.019531 8.21875 -11.769531 8.21875 -11.46875 C 8.21875 -11.15625 8.117188 -10.898438 7.921875 -10.703125 C 7.722656 -10.515625 7.46875 -10.421875 7.15625 -10.421875 Z M 5.15625 -10.421875 "/></g></g></g><g fill="#252525" fill-opacity="1"><g transform="translate(262.706557, 94.024439)"><g><path d="M 12 -12.84375 C 12.332031 -12.84375 12.609375 -12.734375 12.828125 -12.515625 C 13.046875 -12.296875 13.15625 -12.007812 13.15625 -11.65625 L 13.15625 -1.15625 C 13.15625 -0.832031 13.046875 -0.554688 12.828125 -0.328125 C 12.609375 -0.109375 12.332031 0 12 0 C 11.65625 0 11.378906 -0.109375 11.171875 -0.328125 C 10.960938 -0.546875 10.859375 -0.820312 10.859375 -1.15625 L 10.859375 -1.796875 C 10.441406 -1.222656 9.867188 -0.738281 9.140625 -0.34375 C 8.410156 0.0390625 7.628906 0.234375 6.796875 0.234375 C 5.703125 0.234375 4.707031 -0.046875 3.8125 -0.609375 C 2.914062 -1.171875 2.210938 -1.953125 1.703125 -2.953125 C 1.191406 -3.960938 0.9375 -5.097656 0.9375 -6.359375 C 0.9375 -7.617188 1.191406 -8.75 1.703125 -9.75 C 2.210938 -10.757812 2.910156 -11.546875 3.796875 -12.109375 C 4.679688 -12.679688 5.65625 -12.96875 6.71875 -12.96875 C 7.570312 -12.96875 8.363281 -12.789062 9.09375 -12.4375 C 9.832031 -12.082031 10.421875 -11.628906 10.859375 -11.078125 L 10.859375 -11.65625 C 10.859375 -12 10.960938 -12.28125 11.171875 -12.5 C 11.378906 -12.726562 11.65625 -12.84375 12 -12.84375 Z M 7.0625 -1.890625 C 7.820312 -1.890625 8.492188 -2.082031 9.078125 -2.46875 C 9.671875 -2.851562 10.128906 -3.382812 10.453125 -4.0625 C 10.785156 -4.738281 10.953125 -5.503906 10.953125 -6.359375 C 10.953125 -7.203125 10.785156 -7.960938 10.453125 -8.640625 C 10.128906 -9.316406 9.671875 -9.851562 9.078125 -10.25 C 8.492188 -10.644531 7.820312 -10.84375 7.0625 -10.84375 C 6.300781 -10.84375 5.625 -10.644531 5.03125 -10.25 C 4.445312 -9.863281 3.988281 -9.332031 3.65625 -8.65625 C 3.332031 -7.976562 3.171875 -7.210938 3.171875 -6.359375 C 3.171875 -5.503906 3.332031 -4.738281 3.65625 -4.0625 C 3.988281 -3.382812 4.445312 -2.851562 5.03125 -2.46875 C 5.625 -2.082031 6.300781 -1.890625 7.0625 -1.890625 Z M 7.0625 -1.890625 "/></g></g></g><g fill="#252525" fill-opacity="1"><g transform="translate(293.323549, 94.024439)"><g><path d="M 4.203125 -1.15625 C 4.203125 -0.832031 4.085938 -0.554688 3.859375 -0.328125 C 3.640625 -0.109375 3.367188 0 3.046875 0 C 2.722656 0 2.453125 -0.109375 2.234375 -0.328125 C 2.015625 -0.554688 1.90625 -0.832031 1.90625 -1.15625 L 1.90625 -16.734375 C 1.90625 -17.054688 2.019531 -17.332031 2.25 -17.5625 C 2.476562 -17.789062 2.753906 -17.90625 3.078125 -17.90625 C 3.398438 -17.90625 3.664062 -17.789062 3.875 -17.5625 C 4.09375 -17.332031 4.203125 -17.054688 4.203125 -16.734375 Z M 4.203125 -1.15625 "/></g></g></g><g fill="#252525" fill-opacity="1"><g transform="translate(315.211785, 94.024439)"><g><path d="M 0.984375 -1.984375 C 0.847656 -2.210938 0.78125 -2.429688 0.78125 -2.640625 C 0.78125 -2.960938 0.945312 -3.234375 1.28125 -3.453125 C 1.445312 -3.566406 1.632812 -3.625 1.84375 -3.625 C 2.132812 -3.625 2.398438 -3.503906 2.640625 -3.265625 C 3.117188 -2.710938 3.632812 -2.300781 4.1875 -2.03125 C 4.75 -1.757812 5.414062 -1.625 6.1875 -1.625 C 6.800781 -1.632812 7.34375 -1.769531 7.8125 -2.03125 C 8.28125 -2.300781 8.515625 -2.738281 8.515625 -3.34375 C 8.515625 -3.882812 8.273438 -4.300781 7.796875 -4.59375 C 7.328125 -4.882812 6.628906 -5.148438 5.703125 -5.390625 C 4.804688 -5.628906 4.054688 -5.882812 3.453125 -6.15625 C 2.859375 -6.425781 2.351562 -6.8125 1.9375 -7.3125 C 1.53125 -7.820312 1.328125 -8.488281 1.328125 -9.3125 C 1.328125 -10.039062 1.53125 -10.675781 1.9375 -11.21875 C 2.351562 -11.769531 2.90625 -12.195312 3.59375 -12.5 C 4.28125 -12.8125 5.023438 -12.96875 5.828125 -12.96875 C 6.597656 -12.96875 7.363281 -12.820312 8.125 -12.53125 C 8.894531 -12.238281 9.523438 -11.796875 10.015625 -11.203125 C 10.203125 -10.972656 10.296875 -10.738281 10.296875 -10.5 C 10.296875 -10.238281 10.171875 -9.988281 9.921875 -9.75 C 9.753906 -9.601562 9.550781 -9.53125 9.3125 -9.53125 C 9.019531 -9.53125 8.785156 -9.625 8.609375 -9.8125 C 8.273438 -10.207031 7.859375 -10.507812 7.359375 -10.71875 C 6.867188 -10.925781 6.328125 -11.03125 5.734375 -11.03125 C 5.117188 -11.03125 4.597656 -10.90625 4.171875 -10.65625 C 3.742188 -10.40625 3.53125 -9.984375 3.53125 -9.390625 C 3.550781 -8.816406 3.796875 -8.394531 4.265625 -8.125 C 4.742188 -7.851562 5.472656 -7.585938 6.453125 -7.328125 C 7.304688 -7.097656 8.015625 -6.851562 8.578125 -6.59375 C 9.148438 -6.34375 9.628906 -5.960938 10.015625 -5.453125 C 10.398438 -4.941406 10.59375 -4.273438 10.59375 -3.453125 C 10.59375 -2.703125 10.375 -2.046875 9.9375 -1.484375 C 9.5 -0.929688 8.929688 -0.503906 8.234375 -0.203125 C 7.535156 0.0859375 6.789062 0.234375 6 0.234375 C 4.976562 0.234375 4.035156 0.0546875 3.171875 -0.296875 C 2.316406 -0.648438 1.585938 -1.210938 0.984375 -1.984375 Z M 0.984375 -1.984375 "/></g></g></g></svg>