<?xml version="1.0" encoding="UTF-8"?> <svg xmlns="http://www.w3.org/2000/svg" xmlns:xlink="http://www.w3.org/1999/xlink" width="490" zoomAndPan="magnify" viewBox="0 0 367.5 101.249998" height="135" preserveAspectRatio="xMidYMid meet" version="1.0"><defs><g></g></defs><g fill="#ffffff" fill-opacity="1"><g transform="translate(6.376785, 66.107313)"><g><path d="M 0.609375 -50.140625 L 0.609375 -62.671875 L 44.671875 -62.671875 L 44.671875 -50.140625 L 29.78125 -50.140625 L 29.78125 0 L 15.5 0 L 15.5 -50.140625 Z M 0.609375 -50.140625 "></path></g></g></g><g fill="#ffffff" fill-opacity="1"><g transform="translate(49.750205, 66.107313)"><g><path d="M 43.984375 -17.625 L 15.71875 -17.625 C 15.71875 -14.882812 16.601562 -12.859375 18.375 -11.546875 C 20.15625 -10.234375 22.082031 -9.578125 24.15625 -9.578125 C 26.332031 -9.578125 28.050781 -9.863281 29.3125 -10.4375 C 30.582031 -11.019531 32.03125 -12.175781 33.65625 -13.90625 L 43.375 -9.046875 C 39.320312 -2.253906 32.585938 1.140625 23.171875 1.140625 C 17.296875 1.140625 12.253906 -0.867188 8.046875 -4.890625 C 3.847656 -8.921875 1.75 -13.769531 1.75 -19.4375 C 1.75 -25.113281 3.847656 -29.976562 8.046875 -34.03125 C 12.253906 -38.082031 17.296875 -40.109375 23.171875 -40.109375 C 29.347656 -40.109375 34.375 -38.320312 38.25 -34.75 C 42.125 -31.1875 44.0625 -26.085938 44.0625 -19.453125 C 44.0625 -18.535156 44.035156 -17.925781 43.984375 -17.625 Z M 16.109375 -25.0625 L 30.921875 -25.0625 C 30.617188 -27.09375 29.820312 -28.648438 28.53125 -29.734375 C 27.238281 -30.828125 25.578125 -31.375 23.546875 -31.375 C 21.316406 -31.375 19.539062 -30.789062 18.21875 -29.625 C 16.90625 -28.457031 16.203125 -26.9375 16.109375 -25.0625 Z M 16.109375 -25.0625 "></path></g></g></g><g fill="#ffffff" fill-opacity="1"><g transform="translate(93.655349, 66.107313)"><g><path d="M 25.296875 -29.09375 C 22.765625 -29.09375 20.585938 -28.15625 18.765625 -26.28125 C 16.941406 -24.40625 16.03125 -22.15625 16.03125 -19.53125 C 16.03125 -16.84375 16.941406 -14.5625 18.765625 -12.6875 C 20.585938 -10.8125 22.765625 -9.875 25.296875 -9.875 C 26.515625 -9.875 27.664062 -10.023438 28.75 -10.328125 C 29.84375 -10.628906 30.640625 -10.9375 31.140625 -11.25 L 31.828125 -11.703125 L 36.390625 -2.359375 C 36.035156 -2.097656 35.539062 -1.773438 34.90625 -1.390625 C 34.269531 -1.015625 32.828125 -0.5 30.578125 0.15625 C 28.328125 0.8125 25.910156 1.140625 23.328125 1.140625 C 17.597656 1.140625 12.566406 -0.867188 8.234375 -4.890625 C 3.910156 -8.921875 1.75 -13.75 1.75 -19.375 C 1.75 -25.039062 3.910156 -29.910156 8.234375 -33.984375 C 12.566406 -38.066406 17.597656 -40.109375 23.328125 -40.109375 C 25.910156 -40.109375 28.289062 -39.800781 30.46875 -39.1875 C 32.644531 -38.582031 34.1875 -37.976562 35.09375 -37.375 L 36.390625 -36.46875 L 31.828125 -27.265625 C 30.160156 -28.484375 27.984375 -29.09375 25.296875 -29.09375 Z M 25.296875 -29.09375 "></path></g></g></g><g fill="#ffffff" fill-opacity="1"><g transform="translate(129.052892, 66.107313)"><g><path d="M 4.5625 0 L 4.5625 -65.328125 L 18 -65.328125 L 18 -34.875 L 18.15625 -34.875 C 21.644531 -38.363281 25.367188 -40.109375 29.328125 -40.109375 C 31.242188 -40.109375 33.148438 -39.851562 35.046875 -39.34375 C 36.953125 -38.84375 38.78125 -38.0625 40.53125 -37 C 42.28125 -35.9375 43.695312 -34.425781 44.78125 -32.46875 C 45.875 -30.519531 46.421875 -28.253906 46.421875 -25.671875 L 46.421875 0 L 32.96875 0 L 32.96875 -22.03125 C 32.96875 -24.050781 32.320312 -25.820312 31.03125 -27.34375 C 29.738281 -28.863281 28.054688 -29.625 25.984375 -29.625 C 23.953125 -29.625 22.113281 -28.835938 20.46875 -27.265625 C 18.820312 -25.703125 18 -23.957031 18 -22.03125 L 18 0 Z M 4.5625 0 "></path></g></g></g><g fill="#ffffff" fill-opacity="1"><g transform="translate(177.363766, 66.107313)"><g><path d="M 27.65625 -63.8125 C 31.050781 -63.8125 34.367188 -63.316406 37.609375 -62.328125 C 40.847656 -61.335938 43.253906 -60.363281 44.828125 -59.40625 L 47.09375 -57.890625 L 41.328125 -46.5 C 40.867188 -46.800781 40.234375 -47.191406 39.421875 -47.671875 C 38.617188 -48.148438 37.101562 -48.796875 34.875 -49.609375 C 32.644531 -50.421875 30.566406 -50.828125 28.640625 -50.828125 C 26.253906 -50.828125 24.414062 -50.316406 23.125 -49.296875 C 21.832031 -48.285156 21.1875 -46.921875 21.1875 -45.203125 C 21.1875 -44.335938 21.488281 -43.535156 22.09375 -42.796875 C 22.707031 -42.066406 23.75 -41.285156 25.21875 -40.453125 C 26.6875 -39.617188 27.976562 -38.945312 29.09375 -38.4375 C 30.207031 -37.9375 31.929688 -37.175781 34.265625 -36.15625 C 38.316406 -34.4375 41.769531 -32.09375 44.625 -29.125 C 47.488281 -26.164062 48.921875 -22.8125 48.921875 -19.0625 C 48.921875 -15.46875 48.273438 -12.328125 46.984375 -9.640625 C 45.691406 -6.960938 43.914062 -4.863281 41.65625 -3.34375 C 39.40625 -1.820312 36.910156 -0.695312 34.171875 0.03125 C 31.441406 0.769531 28.484375 1.140625 25.296875 1.140625 C 22.554688 1.140625 19.867188 0.859375 17.234375 0.296875 C 14.609375 -0.253906 12.410156 -0.945312 10.640625 -1.78125 C 8.867188 -2.613281 7.269531 -3.4375 5.84375 -4.25 C 4.425781 -5.0625 3.390625 -5.75 2.734375 -6.3125 L 1.75 -7.140625 L 8.890625 -19.140625 C 9.492188 -18.640625 10.328125 -17.992188 11.390625 -17.203125 C 12.453125 -16.421875 14.335938 -15.367188 17.046875 -14.046875 C 19.765625 -12.734375 22.160156 -12.078125 24.234375 -12.078125 C 30.265625 -12.078125 33.28125 -14.128906 33.28125 -18.234375 C 33.28125 -19.097656 33.0625 -19.894531 32.625 -20.625 C 32.195312 -21.363281 31.4375 -22.097656 30.34375 -22.828125 C 29.257812 -23.566406 28.296875 -24.148438 27.453125 -24.578125 C 26.617188 -25.003906 25.253906 -25.660156 23.359375 -26.546875 C 21.460938 -27.429688 20.054688 -28.101562 19.140625 -28.5625 C 15.347656 -30.4375 12.410156 -32.78125 10.328125 -35.59375 C 8.253906 -38.40625 7.21875 -41.429688 7.21875 -44.671875 C 7.21875 -50.296875 9.289062 -54.890625 13.4375 -58.453125 C 17.59375 -62.023438 22.332031 -63.8125 27.65625 -63.8125 Z M 27.65625 -63.8125 "></path></g></g></g><g fill="#ffffff" fill-opacity="1"><g transform="translate(226.510198, 66.107313)"><g><path d="M 40.421875 -62.671875 L 40.421875 -50.140625 L 18.84375 -50.140625 L 18.84375 -37.6875 L 39.5 -37.6875 L 39.5 -25.140625 L 18.84375 -25.140625 L 18.84375 -12.53125 L 40.421875 -12.53125 L 40.421875 0 L 4.5625 0 L 4.5625 -62.671875 Z M 40.421875 -62.671875 "></path></g></g></g><g fill="#ffffff" fill-opacity="1"><g transform="translate(268.668244, 66.107313)"><g><path d="M 1.75 -31.375 C 1.75 -40.4375 4.835938 -48.109375 11.015625 -54.390625 C 17.191406 -60.671875 24.632812 -63.8125 33.34375 -63.8125 C 42.113281 -63.8125 49.5625 -60.679688 55.6875 -54.421875 C 61.8125 -48.171875 64.875 -40.488281 64.875 -31.375 C 64.875 -22.207031 61.859375 -14.492188 55.828125 -8.234375 C 49.804688 -1.984375 42.3125 1.140625 33.34375 1.140625 C 24.175781 1.140625 16.617188 -1.957031 10.671875 -8.15625 C 4.722656 -14.363281 1.75 -22.101562 1.75 -31.375 Z M 17.171875 -31.375 C 17.171875 -28.082031 17.675781 -25.082031 18.6875 -22.375 C 19.695312 -19.664062 21.46875 -17.375 24 -15.5 C 26.53125 -13.625 29.644531 -12.6875 33.34375 -12.6875 C 38.664062 -12.6875 42.679688 -14.507812 45.390625 -18.15625 C 48.097656 -21.800781 49.453125 -26.207031 49.453125 -31.375 C 49.453125 -36.488281 48.070312 -40.878906 45.3125 -44.546875 C 42.550781 -48.222656 38.5625 -50.0625 33.34375 -50.0625 C 28.175781 -50.0625 24.1875 -48.222656 21.375 -44.546875 C 18.570312 -40.878906 17.171875 -36.488281 17.171875 -31.375 Z M 17.171875 -31.375 "></path></g></g></g><g fill="#cb6ce6" fill-opacity="1"><g transform="translate(333.391934, 66.107313)"><g><path d="M 13.21875 -16.25 C 15.644531 -16.25 17.707031 -15.398438 19.40625 -13.703125 C 21.101562 -12.015625 21.953125 -9.953125 21.953125 -7.515625 C 21.953125 -5.140625 21.101562 -3.101562 19.40625 -1.40625 C 17.707031 0.289062 15.644531 1.140625 13.21875 1.140625 C 10.832031 1.140625 8.789062 0.289062 7.09375 -1.40625 C 5.40625 -3.101562 4.5625 -5.140625 4.5625 -7.515625 C 4.5625 -9.953125 5.40625 -12.015625 7.09375 -13.703125 C 8.789062 -15.398438 10.832031 -16.25 13.21875 -16.25 Z M 13.21875 -16.25 "></path></g></g></g><g fill="#ffffff" fill-opacity="1"><g transform="translate(187.457462, 94.117681)"><g><path d="M 11.390625 -12.796875 C 11.703125 -12.796875 11.960938 -12.691406 12.171875 -12.484375 C 12.378906 -12.285156 12.484375 -12.050781 12.484375 -11.78125 C 12.484375 -11.632812 12.425781 -11.429688 12.3125 -11.171875 L 7.71875 -0.71875 C 7.625 -0.507812 7.484375 -0.34375 7.296875 -0.21875 C 7.117188 -0.09375 6.925781 -0.0195312 6.71875 0 C 6.46875 0.03125 6.234375 -0.015625 6.015625 -0.140625 C 5.796875 -0.273438 5.628906 -0.46875 5.515625 -0.71875 L 0.921875 -11.171875 C 0.835938 -11.410156 0.796875 -11.613281 0.796875 -11.78125 C 0.796875 -12.039062 0.898438 -12.273438 1.109375 -12.484375 C 1.316406 -12.691406 1.59375 -12.796875 1.9375 -12.796875 C 2.175781 -12.796875 2.390625 -12.734375 2.578125 -12.609375 C 2.773438 -12.492188 2.929688 -12.3125 3.046875 -12.0625 L 6.703125 -3.578125 L 10.359375 -12.0625 C 10.578125 -12.550781 10.921875 -12.796875 11.390625 -12.796875 Z M 11.390625 -12.796875 "></path></g></g></g><g fill="#ffffff" fill-opacity="1"><g transform="translate(216.481175, 94.117681)"><g><path d="M 3.890625 -1.15625 C 3.890625 -0.832031 3.78125 -0.554688 3.5625 -0.328125 C 3.34375 -0.109375 3.066406 0 2.734375 0 C 2.410156 0 2.140625 -0.109375 1.921875 -0.328125 C 1.703125 -0.554688 1.59375 -0.832031 1.59375 -1.15625 L 1.59375 -11.640625 C 1.59375 -11.960938 1.703125 -12.234375 1.921875 -12.453125 C 2.140625 -12.679688 2.410156 -12.796875 2.734375 -12.796875 C 3.066406 -12.796875 3.34375 -12.679688 3.5625 -12.453125 C 3.78125 -12.234375 3.890625 -11.960938 3.890625 -11.640625 Z M 2.734375 -14.390625 C 2.265625 -14.390625 1.925781 -14.472656 1.71875 -14.640625 C 1.519531 -14.816406 1.421875 -15.085938 1.421875 -15.453125 L 1.421875 -15.84375 C 1.421875 -16.226562 1.53125 -16.5 1.75 -16.65625 C 1.96875 -16.820312 2.304688 -16.90625 2.765625 -16.90625 C 3.210938 -16.90625 3.535156 -16.820312 3.734375 -16.65625 C 3.941406 -16.488281 4.046875 -16.21875 4.046875 -15.84375 L 4.046875 -15.453125 C 4.046875 -15.066406 3.9375 -14.789062 3.71875 -14.625 C 3.507812 -14.46875 3.179688 -14.390625 2.734375 -14.390625 Z M 2.734375 -14.390625 "></path></g></g></g><g fill="#ffffff" fill-opacity="1"><g transform="translate(237.741797, 94.117681)"><g><path d="M 5.15625 -10.421875 L 5.15625 -3.21875 C 5.15625 -2.40625 5.515625 -2 6.234375 -2 C 6.347656 -2 6.5 -2.023438 6.6875 -2.078125 C 6.882812 -2.140625 7.039062 -2.171875 7.15625 -2.171875 C 7.363281 -2.171875 7.539062 -2.082031 7.6875 -1.90625 C 7.832031 -1.726562 7.90625 -1.503906 7.90625 -1.234375 C 7.90625 -0.890625 7.710938 -0.597656 7.328125 -0.359375 C 6.941406 -0.117188 6.503906 0 6.015625 0 C 5.484375 0 4.992188 -0.0546875 4.546875 -0.171875 C 4.109375 -0.285156 3.71875 -0.570312 3.375 -1.03125 C 3.03125 -1.488281 2.859375 -2.1875 2.859375 -3.125 L 2.859375 -10.421875 L 1.453125 -10.421875 C 1.140625 -10.421875 0.882812 -10.519531 0.6875 -10.71875 C 0.488281 -10.925781 0.390625 -11.179688 0.390625 -11.484375 C 0.390625 -11.796875 0.488281 -12.046875 0.6875 -12.234375 C 0.882812 -12.429688 1.140625 -12.53125 1.453125 -12.53125 L 2.859375 -12.53125 L 2.859375 -14.5625 C 2.859375 -14.882812 2.960938 -15.15625 3.171875 -15.375 C 3.390625 -15.601562 3.671875 -15.71875 4.015625 -15.71875 C 4.335938 -15.71875 4.609375 -15.601562 4.828125 -15.375 C 5.046875 -15.15625 5.15625 -14.882812 5.15625 -14.5625 L 5.15625 -12.53125 L 7.15625 -12.53125 C 7.46875 -12.53125 7.722656 -12.425781 7.921875 -12.21875 C 8.117188 -12.019531 8.21875 -11.769531 8.21875 -11.46875 C 8.21875 -11.15625 8.117188 -10.898438 7.921875 -10.703125 C 7.722656 -10.515625 7.46875 -10.421875 7.15625 -10.421875 Z M 5.15625 -10.421875 "></path></g></g></g><g fill="#ffffff" fill-opacity="1"><g transform="translate(262.702581, 94.117681)"><g><path d="M 12 -12.84375 C 12.332031 -12.84375 12.609375 -12.734375 12.828125 -12.515625 C 13.046875 -12.296875 13.15625 -12.007812 13.15625 -11.65625 L 13.15625 -1.15625 C 13.15625 -0.832031 13.046875 -0.554688 12.828125 -0.328125 C 12.609375 -0.109375 12.332031 0 12 0 C 11.65625 0 11.378906 -0.109375 11.171875 -0.328125 C 10.960938 -0.546875 10.859375 -0.820312 10.859375 -1.15625 L 10.859375 -1.796875 C 10.441406 -1.222656 9.867188 -0.738281 9.140625 -0.34375 C 8.410156 0.0390625 7.628906 0.234375 6.796875 0.234375 C 5.703125 0.234375 4.707031 -0.046875 3.8125 -0.609375 C 2.914062 -1.171875 2.210938 -1.953125 1.703125 -2.953125 C 1.191406 -3.960938 0.9375 -5.097656 0.9375 -6.359375 C 0.9375 -7.617188 1.191406 -8.75 1.703125 -9.75 C 2.210938 -10.757812 2.910156 -11.546875 3.796875 -12.109375 C 4.679688 -12.679688 5.65625 -12.96875 6.71875 -12.96875 C 7.570312 -12.96875 8.363281 -12.789062 9.09375 -12.4375 C 9.832031 -12.082031 10.421875 -11.628906 10.859375 -11.078125 L 10.859375 -11.65625 C 10.859375 -12 10.960938 -12.28125 11.171875 -12.5 C 11.378906 -12.726562 11.65625 -12.84375 12 -12.84375 Z M 7.0625 -1.890625 C 7.820312 -1.890625 8.492188 -2.082031 9.078125 -2.46875 C 9.671875 -2.851562 10.128906 -3.382812 10.453125 -4.0625 C 10.785156 -4.738281 10.953125 -5.503906 10.953125 -6.359375 C 10.953125 -7.203125 10.785156 -7.960938 10.453125 -8.640625 C 10.128906 -9.316406 9.671875 -9.851562 9.078125 -10.25 C 8.492188 -10.644531 7.820312 -10.84375 7.0625 -10.84375 C 6.300781 -10.84375 5.625 -10.644531 5.03125 -10.25 C 4.445312 -9.863281 3.988281 -9.332031 3.65625 -8.65625 C 3.332031 -7.976562 3.171875 -7.210938 3.171875 -6.359375 C 3.171875 -5.503906 3.332031 -4.738281 3.65625 -4.0625 C 3.988281 -3.382812 4.445312 -2.851562 5.03125 -2.46875 C 5.625 -2.082031 6.300781 -1.890625 7.0625 -1.890625 Z M 7.0625 -1.890625 "></path></g></g></g><g fill="#ffffff" fill-opacity="1"><g transform="translate(293.322445, 94.117681)"><g><path d="M 4.203125 -1.15625 C 4.203125 -0.832031 4.085938 -0.554688 3.859375 -0.328125 C 3.640625 -0.109375 3.367188 0 3.046875 0 C 2.722656 0 2.453125 -0.109375 2.234375 -0.328125 C 2.015625 -0.554688 1.90625 -0.832031 1.90625 -1.15625 L 1.90625 -16.734375 C 1.90625 -17.054688 2.019531 -17.332031 2.25 -17.5625 C 2.476562 -17.789062 2.753906 -17.90625 3.078125 -17.90625 C 3.398438 -17.90625 3.664062 -17.789062 3.875 -17.5625 C 4.09375 -17.332031 4.203125 -17.054688 4.203125 -16.734375 Z M 4.203125 -1.15625 "></path></g></g></g><g fill="#ffffff" fill-opacity="1"><g transform="translate(315.211851, 94.117681)"><g><path d="M 0.984375 -1.984375 C 0.847656 -2.210938 0.78125 -2.429688 0.78125 -2.640625 C 0.78125 -2.960938 0.945312 -3.234375 1.28125 -3.453125 C 1.445312 -3.566406 1.632812 -3.625 1.84375 -3.625 C 2.132812 -3.625 2.398438 -3.503906 2.640625 -3.265625 C 3.117188 -2.710938 3.632812 -2.300781 4.1875 -2.03125 C 4.75 -1.757812 5.414062 -1.625 6.1875 -1.625 C 6.800781 -1.632812 7.34375 -1.769531 7.8125 -2.03125 C 8.28125 -2.300781 8.515625 -2.738281 8.515625 -3.34375 C 8.515625 -3.882812 8.273438 -4.300781 7.796875 -4.59375 C 7.328125 -4.882812 6.628906 -5.148438 5.703125 -5.390625 C 4.804688 -5.628906 4.054688 -5.882812 3.453125 -6.15625 C 2.859375 -6.425781 2.351562 -6.8125 1.9375 -7.3125 C 1.53125 -7.820312 1.328125 -8.488281 1.328125 -9.3125 C 1.328125 -10.039062 1.53125 -10.675781 1.9375 -11.21875 C 2.351562 -11.769531 2.90625 -12.195312 3.59375 -12.5 C 4.28125 -12.8125 5.023438 -12.96875 5.828125 -12.96875 C 6.597656 -12.96875 7.363281 -12.820312 8.125 -12.53125 C 8.894531 -12.238281 9.523438 -11.796875 10.015625 -11.203125 C 10.203125 -10.972656 10.296875 -10.738281 10.296875 -10.5 C 10.296875 -10.238281 10.171875 -9.988281 9.921875 -9.75 C 9.753906 -9.601562 9.550781 -9.53125 9.3125 -9.53125 C 9.019531 -9.53125 8.785156 -9.625 8.609375 -9.8125 C 8.273438 -10.207031 7.859375 -10.507812 7.359375 -10.71875 C 6.867188 -10.925781 6.328125 -11.03125 5.734375 -11.03125 C 5.117188 -11.03125 4.597656 -10.90625 4.171875 -10.65625 C 3.742188 -10.40625 3.53125 -9.984375 3.53125 -9.390625 C 3.550781 -8.816406 3.796875 -8.394531 4.265625 -8.125 C 4.742188 -7.851562 5.472656 -7.585938 6.453125 -7.328125 C 7.304688 -7.097656 8.015625 -6.851562 8.578125 -6.59375 C 9.148438 -6.34375 9.628906 -5.960938 10.015625 -5.453125 C 10.398438 -4.941406 10.59375 -4.273438 10.59375 -3.453125 C 10.59375 -2.703125 10.375 -2.046875 9.9375 -1.484375 C 9.5 -0.929688 8.929688 -0.503906 8.234375 -0.203125 C 7.535156 0.0859375 6.789062 0.234375 6 0.234375 C 4.976562 0.234375 4.035156 0.0546875 3.171875 -0.296875 C 2.316406 -0.648438 1.585938 -1.210938 0.984375 -1.984375 Z M 0.984375 -1.984375 "></path></g></g></g></svg> 